<?xml version="1.0" encoding="UTF-8"?>
<svg id="Layer_2" data-name="Layer 2" xmlns="http://www.w3.org/2000/svg" viewBox="0 0 205.46 205.15">
  <defs>
    <style>
      .cls-1 {
        fill: none;
        stroke: #fefae0;
        stroke-miterlimit: 10;
        stroke-width: 3.34px;
      }
    </style>
  </defs>
  <g id="mobile">
    <g>
      <path class="cls-1" d="M186.28,18.85c-9.93-9.86-26.16-14.68-39.98-15.87C123.45,1.02,60.8.49,40.85,6.92,18.47,14.13,5.51,33.11,3.38,56.33c-2.09,22.82-2.59,77.07.32,99.18,2.8,21.33,21.75,42.92,43.45,45.91,23.21,3.2,77.24,2.15,101.65.33,27.29-2.04,49.31-17.81,53.05-46.24,2.99-22.74,2.08-72.95.32-96.7-1.09-14.73-5.17-29.33-15.89-39.96Z"/>
      <path class="cls-1" d="M173.9,28.76c8.75,8.1,12.36,20.94,13.36,32.55,1.73,19.99,2.68,73.13-.24,91.78-1.86,11.86-12.91,26.1-24.18,30.42-14.39,5.52-87.62,5.04-105.95,3.21-24.73-2.47-36.43-16.69-38.61-40.82-1.75-19.4-2.22-87.43,3.86-103.08,4.99-12.84,16.1-21.23,29.63-22.49,23.84-2.23,81.21-2.76,104.44.05,6.23.75,13.22,4.24,17.69,8.38ZM148.07,57.05c7.2,7.04,24.15.33,18.06-11.79-7.88-15.68-28.08,1.99-18.06,11.79ZM89.72,50.83c-41.86,7.17-53.86,69.98-19.05,94.8,48.12,34.32,106.37-18.37,78.15-70.71-11.39-21.13-36.59-27.95-59.1-24.1Z"/>
      <path class="cls-1" d="M99.62,65.68c46.77-4.12,56.42,69.77,6.87,73.93-51.96,4.37-53.25-69.84-6.87-73.93Z"/>
    </g>
  </g>
</svg>