<?xml version="1.0" encoding="UTF-8"?>
<svg id="Layer_2" data-name="Layer 2" xmlns="http://www.w3.org/2000/svg" viewBox="0 0 199.5 199.5">
  <defs>
    <style>
      .cls-1 {
        fill: none;
        stroke: #fefae0;
        stroke-miterlimit: 10;
        stroke-width: 3.34px;
      }
    </style>
  </defs>
  <g id="mobile">
    <g>
      <path class="cls-1" d="M55.1,43.23c-20.63,2.66-8.04,37.3,9.71,22.18,9.91-8.45,1.51-23.62-9.71-22.18ZM67.79,152.45v-70.17c-5.34-4.72-14.74-1.35-21.59-2.31v74.03l21.59-1.54ZM81.67,79.97v74.03c6.13-2.47,13.96-2.46,20.05,0v-42.41c0-5.36,9.01-12.79,14.67-13.2,5.54-.41,16.17,4.66,16.17,10.12v43.95h21.59v-50.12c0-8.44-10-19.75-18.4-21.7-13.04-3.03-23.54.14-33.25,8.61l-.78-9.28h-20.06Z"/>
      <rect class="cls-1" x="1.67" y="1.67" width="196.16" height="196.16" rx="98.08" ry="98.08"/>
    </g>
  </g>
</svg>