<?xml version="1.0" encoding="UTF-8"?>
<svg id="Layer_2" data-name="Layer 2" xmlns="http://www.w3.org/2000/svg" viewBox="0 0 132.4 156.04">
  <defs>
    <style>
      .cls-1 {
        fill: #606c38;
      }
    </style>
  </defs>
  <g id="mobile">
    <g id="logo">
      <g>
        <path class="cls-1" d="M37.47,121.66c-2.6-18.33-16.53-55.88-31.79-63.71-8-4.11-7.18,4.55.09,10.54,14.67,12.1,19.55,39.46,27.34,65.41.34,1.14,4.35-3.43,4.35-12.24Z"/>
        <path class="cls-1" d="M86.29,148.4c-2.16-.24-4.37-1.71-5.11-4.1-1.61-5.21-3.02-16.77-.35-20.96,3.5-5.5,13.35-16.08,11.18-20.44-3.62-7.25-11.91-10.2-14.89-18.97-1.36,4.5-1.86,9.04-3.44,17.45-1.29,6.85-2.82,45.98-5.72,51.75-3.42,6.79-9.19.12-8.46-3.96,3.7-20.86,8.57-63.74,10.47-79.64,2.33-19.56,2.26-49.96-11.25-65.13-1.38-1.55-2.85-4.21,1.55-4.37.79-.03,1.69-.1,2.77.12,11.23,2.32,12.09,10.84,19.48,14.05,3.65,1.58,14.48,1.45,18.12,2.69,30.6,10.43,42.71,58.5,20.07,82.63-6.91,7.37-12.4,4.26-16.76,8.7-4.82,4.92-13.29,13.02-15.65,19.01-2.09,5.29,2.22,21.63-2,21.16ZM101.6,33.31c-22.3-10.41-22.45,6.81-22.28,22.26.07,6.3,1.45,12.52,4.09,18.24,28.24,61.25,52.68-24.39,18.19-40.5Z"/>
        <path class="cls-1" d="M65.13,24.37c-.94-5.71-11.07,5.91-12.76,20.21-3.14,26.53,2.67,27.3-8.83,83.63-.36,5.25,8.25.67,8.78-6.54,5.71-77.98,18.41-63.1,12.81-97.3Z"/>
        <path class="cls-1" d="M43.85,133.09s-2.82,2.38-1.68,7.39c1.15,5.03,3.56,11,12.58,12.16-4.72-6.29-2.83-8.59-3.04-12.37-.21-3.77-2.62-8.48-7.86-7.18Z"/>
      </g>
    </g>
  </g>
</svg>