<?xml version="1.0" encoding="UTF-8"?>
<svg id="Layer_2" data-name="Layer 2" xmlns="http://www.w3.org/2000/svg" viewBox="0 0 199.5 199.5">
  <defs>
    <style>
      .cls-1 {
        fill: none;
        stroke: #fefae0;
        stroke-miterlimit: 10;
        stroke-width: 3.34px;
      }
    </style>
  </defs>
  <g id="mobile">
    <g>
      <path class="cls-1" d="M63.5,58.75c-4.44.53-14.4,2.65-17.47,5.66-7.5,7.35-7.08,56.65-2.56,65.95,3.44,7.09,10.87,8.71,18.07,9.69,21.94,2.98,56.3,2.74,78.24-.39,10.93-1.56,15.96-4.98,18-15.92,2.45-13.14,2.5-38.72-.53-51.64-2.59-11.05-14.92-13.06-24.73-13.83-17.77-1.39-51.61-1.6-69.03.49Z"/>
      <path class="cls-1" d="M86.98,118.47v-37.01l32.36,17.74c.03,2.35-28.33,16.13-32.36,19.28Z"/>
      <rect class="cls-1" x="1.67" y="1.67" width="196.16" height="196.16" rx="98.08" ry="98.08"/>
    </g>
  </g>
</svg>